<mxfile host="app.diagrams.net" modified="2021-11-19T19:39:18.172Z" agent="5.0 (Windows NT 10.0; Win64; x64) AppleWebKit/537.36 (KHTML, like Gecko) Chrome/96.0.4664.45 Safari/537.36" etag="xK9z1rsbS36EWzp8mBs2" version="15.8.3" type="github">
  <diagram name="Page-1" id="929967ad-93f9-6ef4-fab6-5d389245f69c">
    <mxGraphModel dx="652" dy="423" grid="1" gridSize="10" guides="1" tooltips="1" connect="1" arrows="1" fold="1" page="1" pageScale="1.5" pageWidth="1169" pageHeight="826" background="none" math="0" shadow="0">
      <root>
        <mxCell id="0" style=";html=1;" />
        <mxCell id="1" style=";html=1;" parent="0" />
        <mxCell id="1672d66443f91eb5-23" value="Title" style="text;strokeColor=none;fillColor=none;html=1;fontSize=24;fontStyle=1;verticalAlign=middle;align=center;" parent="1" vertex="1">
          <mxGeometry x="120" y="40" width="1510" height="40" as="geometry" />
        </mxCell>
        <mxCell id="oPUPJiNRS5jTGX7jdNUi-1" value="" style="ellipse;html=1;shape=startState;fillColor=#000000;strokeColor=#ff0000;" vertex="1" parent="1">
          <mxGeometry x="862" y="350" width="30" height="30" as="geometry" />
        </mxCell>
        <mxCell id="oPUPJiNRS5jTGX7jdNUi-2" value="" style="edgeStyle=orthogonalEdgeStyle;html=1;verticalAlign=bottom;endArrow=open;endSize=8;strokeColor=#ff0000;rounded=0;" edge="1" source="oPUPJiNRS5jTGX7jdNUi-1" parent="1">
          <mxGeometry relative="1" as="geometry">
            <mxPoint x="877" y="440" as="targetPoint" />
          </mxGeometry>
        </mxCell>
        <mxCell id="oPUPJiNRS5jTGX7jdNUi-3" value="авторизация" style="rounded=1;whiteSpace=wrap;html=1;arcSize=40;fontColor=#000000;fillColor=#ffffc0;strokeColor=#ff0000;" vertex="1" parent="1">
          <mxGeometry x="817" y="440" width="120" height="40" as="geometry" />
        </mxCell>
        <mxCell id="oPUPJiNRS5jTGX7jdNUi-4" value="" style="edgeStyle=orthogonalEdgeStyle;html=1;verticalAlign=bottom;endArrow=open;endSize=8;strokeColor=#ff0000;rounded=0;" edge="1" source="oPUPJiNRS5jTGX7jdNUi-3" parent="1">
          <mxGeometry relative="1" as="geometry">
            <mxPoint x="877" y="540" as="targetPoint" />
          </mxGeometry>
        </mxCell>
        <mxCell id="oPUPJiNRS5jTGX7jdNUi-5" value="админ?" style="rhombus;whiteSpace=wrap;html=1;fillColor=#ffffc0;strokeColor=#ff0000;" vertex="1" parent="1">
          <mxGeometry x="837" y="540" width="80" height="40" as="geometry" />
        </mxCell>
        <mxCell id="oPUPJiNRS5jTGX7jdNUi-6" value="no" style="edgeStyle=orthogonalEdgeStyle;html=1;align=left;verticalAlign=bottom;endArrow=open;endSize=8;strokeColor=#ff0000;rounded=0;" edge="1" source="oPUPJiNRS5jTGX7jdNUi-5" parent="1">
          <mxGeometry x="-1" relative="1" as="geometry">
            <mxPoint x="1020" y="560" as="targetPoint" />
          </mxGeometry>
        </mxCell>
        <mxCell id="oPUPJiNRS5jTGX7jdNUi-7" value="yes" style="edgeStyle=orthogonalEdgeStyle;html=1;align=left;verticalAlign=top;endArrow=open;endSize=8;strokeColor=#ff0000;rounded=0;" edge="1" source="oPUPJiNRS5jTGX7jdNUi-5" parent="1">
          <mxGeometry x="-1" relative="1" as="geometry">
            <mxPoint x="880" y="640" as="targetPoint" />
            <Array as="points">
              <mxPoint x="877" y="610" />
              <mxPoint x="880" y="610" />
            </Array>
          </mxGeometry>
        </mxCell>
        <mxCell id="oPUPJiNRS5jTGX7jdNUi-8" value="просмотр всех пациентов" style="rounded=1;whiteSpace=wrap;html=1;arcSize=40;fontColor=#000000;fillColor=#ffffc0;strokeColor=#ff0000;" vertex="1" parent="1">
          <mxGeometry x="817" y="640" width="120" height="40" as="geometry" />
        </mxCell>
        <mxCell id="oPUPJiNRS5jTGX7jdNUi-9" value="" style="edgeStyle=orthogonalEdgeStyle;html=1;verticalAlign=bottom;endArrow=open;endSize=8;strokeColor=#ff0000;rounded=0;entryX=0;entryY=0.5;entryDx=0;entryDy=0;" edge="1" source="oPUPJiNRS5jTGX7jdNUi-8" parent="1" target="oPUPJiNRS5jTGX7jdNUi-3">
          <mxGeometry relative="1" as="geometry">
            <mxPoint x="880" y="730" as="targetPoint" />
            <Array as="points">
              <mxPoint x="740" y="660" />
              <mxPoint x="740" y="460" />
            </Array>
          </mxGeometry>
        </mxCell>
        <mxCell id="oPUPJiNRS5jTGX7jdNUi-10" value="создание нового обследования" style="rounded=1;whiteSpace=wrap;html=1;arcSize=40;fontColor=#000000;fillColor=#ffffc0;strokeColor=#ff0000;" vertex="1" parent="1">
          <mxGeometry x="1020" y="540" width="120" height="40" as="geometry" />
        </mxCell>
        <mxCell id="oPUPJiNRS5jTGX7jdNUi-11" value="" style="edgeStyle=orthogonalEdgeStyle;html=1;verticalAlign=bottom;endArrow=open;endSize=8;strokeColor=#ff0000;rounded=0;exitX=1;exitY=0.5;exitDx=0;exitDy=0;" edge="1" source="oPUPJiNRS5jTGX7jdNUi-10" parent="1" target="oPUPJiNRS5jTGX7jdNUi-12">
          <mxGeometry relative="1" as="geometry">
            <mxPoint x="1210" y="560" as="targetPoint" />
            <Array as="points">
              <mxPoint x="1170" y="560" />
              <mxPoint x="1170" y="560" />
            </Array>
          </mxGeometry>
        </mxCell>
        <mxCell id="oPUPJiNRS5jTGX7jdNUi-12" value="" style="ellipse;html=1;shape=endState;fillColor=#000000;strokeColor=#ff0000;" vertex="1" parent="1">
          <mxGeometry x="1195.0000000000002" y="545" width="30" height="30" as="geometry" />
        </mxCell>
      </root>
    </mxGraphModel>
  </diagram>
</mxfile>
